<svg width="970" height="856" viewBox="0 0 970 856" fill="none" xmlns="http://www.w3.org/2000/svg">
<g opacity="0.7">
<path fill-rule="evenodd" clip-rule="evenodd" d="M66.5001 427.647C76.7663 380.37 156.045 286.03 198.905 250.427C238.736 217.339 259.063 204.675 316.5 192.932C371.591 181.669 457.248 197.096 514 201.902C586.73 208.063 690.641 172.352 727.879 219.456C766.186 267.911 692.853 324.712 671.799 378.75C657.803 414.673 647.172 448.924 625.353 482.597C598.203 524.495 588.469 583.616 529.435 598.451C470.484 613.265 420.688 558.404 359.683 549.358C284.599 538.224 191.141 579.798 136.002 540.109C82.602 501.67 54.6225 482.347 66.5001 427.647Z" fill="url(#paint0_linear_1_440)" fill-opacity="0.3"/>
<path fill-rule="evenodd" clip-rule="evenodd" d="M178.135 447.119C179.366 405.028 192.737 363.722 224.246 328.825C253.527 296.393 298.799 275.668 346.886 260.214C393.008 245.392 432.814 261.199 483.001 260.214C547.318 258.953 639.588 216.073 679.682 253.687C720.927 292.38 666.348 348.505 656.828 397.465C650.499 430.01 646.827 460.796 633.322 492.095C616.517 531.041 617.68 583.395 568.708 601.685C519.804 619.95 467.513 576.728 412.932 574.409C345.754 571.555 271.173 616.258 216.704 586.729C163.953 558.131 176.711 495.818 178.135 447.119Z" fill="url(#paint1_linear_1_440)" fill-opacity="0.4"/>
<path fill-rule="evenodd" clip-rule="evenodd" d="M277.126 440.229C292.454 401.639 318.715 366.061 359.543 339.811C397.485 315.417 446.23 304.831 495.792 299.638C543.329 294.658 588.843 302.353 635.464 310.901C695.211 321.856 780.641 314.076 804.937 356.322C829.93 399.78 760.666 441.262 735.375 484.624C718.564 513.448 704.797 541.151 681.786 567.474C653.153 600.228 636.573 648.734 585.238 656.377C533.973 664.009 500.319 614.292 450.76 601.869C389.764 586.579 305.903 613.758 265.622 576.26C226.612 539.945 259.391 484.876 277.126 440.229Z" fill="url(#paint2_linear_1_440)" fill-opacity="0.6"/>
</g>
<defs>
<linearGradient id="paint0_linear_1_440" x1="637.675" y1="542.148" x2="212.299" y2="285.426" gradientUnits="userSpaceOnUse">
<stop stop-color="#9EE6F7" stop-opacity="0"/>
<stop offset="1" stop-color="#9EE6F7" stop-opacity="0.46"/>
</linearGradient>
<linearGradient id="paint1_linear_1_440" x1="649.685" y1="553.075" x2="229.608" y2="388.592" gradientUnits="userSpaceOnUse">
<stop stop-color="#9EE6F7" stop-opacity="0"/>
<stop offset="1" stop-color="#9EE6F7" stop-opacity="0.46"/>
</linearGradient>
<linearGradient id="paint2_linear_1_440" x1="676.316" y1="626.8" x2="365.121" y2="370.69" gradientUnits="userSpaceOnUse">
<stop stop-color="#005AE2"/>
<stop offset="1" stop-color="#73E6FF" stop-opacity="0.38"/>
</linearGradient>
</defs>
</svg>
