<svg width="1740" height="1747" viewBox="0 0 1740 1747" fill="none" xmlns="http://www.w3.org/2000/svg">
<g opacity="0.5">
<path fill-rule="evenodd" clip-rule="evenodd" d="M804 1347.04C747.583 1286.05 669.503 1387.35 638.5 1274.76C609.689 1170.12 600.388 950.83 604.318 831.524C608.087 717.091 631.119 615.65 655.748 512.176C687.311 379.57 695.909 174.687 767.635 145.385C841.419 115.242 889.261 304.277 950.698 391.682C991.539 449.785 1031.37 500.036 1066.81 571.009C1110.9 659.319 1182.47 729.705 1181.93 854.757C1181.38 979.633 1095.75 1025.95 1064.37 1133.77C1025.75 1266.48 1047.76 1480.34 979.553 1550.12C913.499 1617.7 869.273 1417.61 804 1347.04Z" fill="url(#paint0_linear_1_343)" fill-opacity="0.3"/>
<path fill-rule="evenodd" clip-rule="evenodd" d="M891 1252.67C838.186 1213.37 774.321 1216.6 740.5 1126.17C709.069 1042.13 710.243 1031.52 706.425 926.7C702.762 826.161 716.656 732.219 731.817 636.117C751.248 512.96 746.3 332.498 806.962 289.443C869.365 245.152 922.481 398.007 981.268 459.064C1020.35 499.654 1058.07 533.655 1093.23 586.768C1136.97 652.855 1203.54 696.621 1210.66 805.612C1217.76 914.453 1146.02 975.729 1125.25 1077.27C1099.68 1202.24 1131.82 1383.02 1076.68 1460.45C1023.28 1535.44 952.104 1298.13 891 1252.67Z" fill="url(#paint1_linear_1_343)" fill-opacity="0.4"/>
<path fill-rule="evenodd" clip-rule="evenodd" d="M928.5 1080.99C884.721 1018.02 772.841 1027.91 753 927.381C734.561 833.961 846.364 855.316 856 756.706C865.243 662.125 841.953 662.978 868 582.015C901.382 478.258 942.646 591.023 1004 582.015C1067.11 572.747 1061.74 350.191 1117.14 386.548C1178.7 426.948 1091.38 652.777 1117.14 719.559C1149.19 802.655 1292.33 718.144 1285.21 822.271C1278.1 926.254 1204.24 946.46 1172.33 1029.6C1133.06 1131.92 1140.01 1314.92 1079.43 1358.43C1020.77 1400.57 979.149 1153.85 928.5 1080.99Z" fill="url(#paint2_linear_1_343)" fill-opacity="0.6"/>
</g>
<defs>
<linearGradient id="paint0_linear_1_343" x1="1157.93" y1="622.459" x2="555.137" y2="940.336" gradientUnits="userSpaceOnUse">
<stop stop-color="#9EE6F7" stop-opacity="0"/>
<stop offset="1" stop-color="#9EE6F7" stop-opacity="0.46"/>
</linearGradient>
<linearGradient id="paint1_linear_1_343" x1="1175.67" y1="609.262" x2="637.358" y2="986.579" gradientUnits="userSpaceOnUse">
<stop stop-color="#9EE6F7" stop-opacity="0"/>
<stop offset="1" stop-color="#9EE6F7" stop-opacity="0.46"/>
</linearGradient>
<linearGradient id="paint2_linear_1_343" x1="1277.59" y1="623.466" x2="784.891" y2="824.447" gradientUnits="userSpaceOnUse">
<stop stop-color="#005AE2"/>
<stop offset="1" stop-color="#73E6FF" stop-opacity="0.38"/>
</linearGradient>
</defs>
</svg>
