<svg width="841" height="963" viewBox="0 0 841 963" fill="none" xmlns="http://www.w3.org/2000/svg">
<g opacity="0.8">
<path fill-rule="evenodd" clip-rule="evenodd" d="M409.21 62.958C456.75 71.9324 553.214 148.611 589.972 190.486C624.132 229.401 637.345 249.375 650.648 306.471C663.408 361.235 650.321 447.28 647.062 504.142C642.886 577.013 681.414 679.912 635.342 718.42C587.948 758.032 529.17 686.275 474.579 666.7C438.289 653.688 403.76 643.994 369.506 623.1C326.884 597.102 267.519 588.983 251.081 530.375C234.667 471.849 288.151 420.576 295.532 359.348C304.616 283.988 260.511 191.697 298.684 135.498C335.653 81.0705 354.207 52.575 409.21 62.958Z" fill="url(#paint0_linear_1_495)" fill-opacity="0.3"/>
<path fill-rule="evenodd" clip-rule="evenodd" d="M392.787 175.082C434.896 175.166 476.55 187.407 512.293 217.953C545.51 246.34 567.462 291.03 584.219 338.678C600.293 384.379 585.576 424.602 587.927 474.743C590.94 539.002 636.318 630.069 599.811 671.173C562.255 713.457 504.664 660.428 455.464 652.245C422.758 646.804 391.884 643.972 360.228 631.325C320.839 615.588 268.536 618.176 248.918 569.721C229.328 521.333 271.109 467.883 271.941 413.259C272.964 346.029 226.246 272.693 254.28 217.44C281.43 163.93 344.067 174.985 392.787 175.082Z" fill="url(#paint1_linear_1_495)" fill-opacity="0.4"/>
<path opacity="0.4" fill-rule="evenodd" clip-rule="evenodd" d="M402.371 273.849C441.365 288.12 477.644 313.402 504.997 353.5C530.416 390.763 542.325 439.201 548.867 488.604C555.141 535.987 548.688 581.694 541.414 628.531C532.09 688.553 542.195 773.74 500.626 799.178C457.865 825.346 414.511 757.237 370.477 733.137C341.205 717.117 313.138 704.11 286.197 681.825C252.675 654.095 203.736 638.843 194.697 587.735C185.671 536.697 234.453 501.701 245.521 451.822C259.144 390.432 229.691 307.342 266.077 266.054C301.316 226.07 357.257 257.336 402.371 273.849Z" fill="url(#paint2_linear_1_495)" fill-opacity="0.6"/>
</g>
<defs>
<linearGradient id="paint0_linear_1_495" x1="310.313" y1="637.041" x2="555.351" y2="204.828" gradientUnits="userSpaceOnUse">
<stop stop-color="#9EE6F7" stop-opacity="0"/>
<stop offset="1" stop-color="#9EE6F7" stop-opacity="0.46"/>
</linearGradient>
<linearGradient id="paint1_linear_1_495" x1="299.717" y1="649.344" x2="452.695" y2="224.941" gradientUnits="userSpaceOnUse">
<stop stop-color="#9EE6F7" stop-opacity="0"/>
<stop offset="1" stop-color="#9EE6F7" stop-opacity="0.46"/>
</linearGradient>
<linearGradient id="paint2_linear_1_495" x1="226.745" y1="677.973" x2="474.281" y2="359.916" gradientUnits="userSpaceOnUse">
<stop stop-color="#005AE2"/>
<stop offset="1" stop-color="#73E6FF" stop-opacity="0.38"/>
</linearGradient>
</defs>
</svg>
