<svg width="1519" height="1860" viewBox="0 0 1519 1860" fill="none" xmlns="http://www.w3.org/2000/svg">
<g opacity="0.7">
<path fill-rule="evenodd" clip-rule="evenodd" d="M413.5 970.504C423.766 843.506 503.045 590.09 545.905 494.451C585.736 405.572 606.063 371.553 663.5 340.009C718.591 309.755 804.248 351.193 861 364.105C933.73 380.652 1037.64 284.727 1074.88 411.258C1113.19 541.419 1039.85 693.999 1018.8 839.157C1004.8 935.651 994.171 1027.66 972.353 1118.11C945.203 1230.66 935.469 1389.47 876.435 1429.32C817.484 1469.11 767.688 1321.75 706.683 1297.44C631.599 1267.54 538.141 1379.21 483.002 1272.6C429.602 1169.35 401.623 1117.44 413.5 970.504Z" fill="url(#paint0_linear_1_339)" fill-opacity="0.3"/>
<path fill-rule="evenodd" clip-rule="evenodd" d="M525.135 1022.81C526.366 909.743 539.737 798.788 571.246 705.045C600.527 617.927 645.799 562.254 693.886 520.743C740.008 480.926 779.814 523.388 830.001 520.743C894.318 517.355 986.588 402.17 1026.68 503.209C1067.93 607.147 1013.35 757.911 1003.83 889.427C997.499 976.85 993.827 1059.55 980.322 1143.63C963.517 1248.24 964.68 1388.87 915.708 1438.01C866.804 1487.07 814.513 1370.97 759.932 1364.74C692.754 1357.07 618.173 1477.15 563.704 1397.83C510.953 1321.01 523.711 1153.63 525.135 1022.81Z" fill="url(#paint1_linear_1_339)" fill-opacity="0.4"/>
<path fill-rule="evenodd" clip-rule="evenodd" d="M624.126 1004.3C639.454 900.639 665.715 805.071 706.543 734.557C744.485 669.029 793.23 640.593 842.792 626.643C890.329 613.265 935.843 633.936 982.464 656.897C1042.21 686.325 1127.64 665.426 1151.94 778.909C1176.93 895.645 1107.67 1007.08 1082.38 1123.56C1065.56 1200.98 1051.8 1275.4 1028.79 1346.11C1000.15 1434.09 983.573 1564.39 932.238 1584.92C880.973 1605.42 847.319 1471.87 797.76 1438.5C736.764 1397.43 652.903 1470.44 612.621 1369.71C573.612 1272.16 606.391 1124.23 624.126 1004.3Z" fill="url(#paint2_linear_1_339)" fill-opacity="0.6"/>
</g>
<defs>
<linearGradient id="paint0_linear_1_339" x1="984.675" y1="1278.08" x2="432.248" y2="1153.96" gradientUnits="userSpaceOnUse">
<stop stop-color="#9EE6F7" stop-opacity="0"/>
<stop offset="1" stop-color="#9EE6F7" stop-opacity="0.46"/>
</linearGradient>
<linearGradient id="paint1_linear_1_339" x1="996.685" y1="1307.43" x2="522.283" y2="1238.28" gradientUnits="userSpaceOnUse">
<stop stop-color="#9EE6F7" stop-opacity="0"/>
<stop offset="1" stop-color="#9EE6F7" stop-opacity="0.46"/>
</linearGradient>
<linearGradient id="paint2_linear_1_339" x1="1023.32" y1="1505.47" x2="546.136" y2="1359.27" gradientUnits="userSpaceOnUse">
<stop stop-color="#005AE2"/>
<stop offset="1" stop-color="#73E6FF" stop-opacity="0.38"/>
</linearGradient>
</defs>
</svg>
