<svg width="1011" height="1002" viewBox="0 0 1011 1002" fill="none" xmlns="http://www.w3.org/2000/svg">
<g opacity="0.5">
<path fill-rule="evenodd" clip-rule="evenodd" d="M386 670.107C329.583 647.4 251.503 685.114 220.5 643.197C191.689 604.244 182.388 522.609 186.318 478.195C190.087 435.595 213.119 397.831 237.748 359.311C269.311 309.946 277.909 233.674 349.635 222.765C423.419 211.544 471.261 281.916 532.698 314.455C573.539 336.085 613.367 354.792 648.807 381.213C692.903 414.088 764.468 440.291 763.926 486.844C763.385 533.332 677.746 550.576 646.366 590.714C607.745 640.117 629.756 719.729 561.553 745.706C495.499 770.865 451.273 696.379 386 670.107Z" fill="url(#paint0_linear_1_444)" fill-opacity="0.3"/>
<path fill-rule="evenodd" clip-rule="evenodd" d="M473 634.975C420.186 620.346 356.321 621.549 322.5 587.883C291.069 556.596 292.243 552.648 288.425 513.626C284.762 476.199 298.656 441.227 313.817 405.451C333.248 359.603 328.3 292.422 388.962 276.394C451.364 259.906 504.481 316.809 563.268 339.539C602.346 354.649 640.068 367.307 675.225 387.079C718.971 411.682 785.541 427.975 792.657 468.549C799.763 509.067 728.023 531.878 707.249 569.678C681.681 616.202 713.818 683.501 658.679 712.327C605.279 740.243 534.104 651.9 473 634.975Z" fill="url(#paint1_linear_1_444)" fill-opacity="0.4"/>
<path fill-rule="evenodd" clip-rule="evenodd" d="M510.5 571.064C466.721 547.621 354.841 551.303 335 513.88C316.561 479.102 428.364 487.052 438 450.343C447.243 415.133 423.953 415.45 450 385.31C483.382 346.684 524.646 388.664 586 385.31C649.114 381.86 643.736 299.009 699.14 312.544C760.702 327.583 673.381 411.653 699.14 436.514C731.191 467.448 874.325 435.987 867.207 474.75C860.098 513.46 786.239 520.982 754.333 551.932C715.062 590.023 722.01 658.15 661.434 674.348C602.769 690.034 561.149 598.188 510.5 571.064Z" fill="url(#paint2_linear_1_444)" fill-opacity="0.6"/>
</g>
<defs>
<linearGradient id="paint0_linear_1_444" x1="739.928" y1="400.366" x2="483.688" y2="763.345" gradientUnits="userSpaceOnUse">
<stop stop-color="#9EE6F7" stop-opacity="0"/>
<stop offset="1" stop-color="#9EE6F7" stop-opacity="0.46"/>
</linearGradient>
<linearGradient id="paint1_linear_1_444" x1="757.67" y1="395.454" x2="581.043" y2="728.013" gradientUnits="userSpaceOnUse">
<stop stop-color="#9EE6F7" stop-opacity="0"/>
<stop offset="1" stop-color="#9EE6F7" stop-opacity="0.46"/>
</linearGradient>
<linearGradient id="paint2_linear_1_444" x1="859.586" y1="400.741" x2="598.452" y2="686.884" gradientUnits="userSpaceOnUse">
<stop stop-color="#005AE2"/>
<stop offset="1" stop-color="#73E6FF" stop-opacity="0.38"/>
</linearGradient>
</defs>
</svg>
