<svg width="17" height="17" viewBox="0 0 17 17" fill="none" xmlns="http://www.w3.org/2000/svg">
<path d="M5.54529 3.81619C5.52634 4.0416 5.19834 4.09859 5.09284 3.89481L4.52477 2.79767C4.48803 2.72658 4.41317 2.67907 4.32852 2.67292L3.02127 2.57809C2.77843 2.56049 2.71704 2.25601 2.93658 2.15807L4.11838 1.63074C4.19491 1.59658 4.24619 1.52715 4.25275 1.44854L4.35492 0.23494C4.37388 0.00952938 4.70188 -0.0474646 4.80737 0.156321L5.37544 1.25346C5.41218 1.32455 5.48695 1.37207 5.5717 1.37821L6.87894 1.47303C7.12178 1.49064 7.18317 1.79511 6.96363 1.89306L5.78183 2.42039C5.70521 2.45457 5.65402 2.52397 5.64746 2.60259L5.54529 3.81619Z" fill="white"/>
<path d="M1.79248 4.6442C1.76083 4.75336 1.59398 4.75336 1.56232 4.6442L1.39185 4.05649C1.38084 4.01841 1.34876 3.98867 1.30776 3.97842L0.674696 3.82018C0.557092 3.79079 0.557092 3.63591 0.674696 3.60652L1.30776 3.44828C1.34876 3.43802 1.38084 3.40828 1.39185 3.37021L1.56232 2.78249C1.59398 2.67333 1.76083 2.67333 1.79248 2.78249L1.96295 3.37021C1.97396 3.40828 2.006 3.43802 2.04704 3.44828L2.68011 3.60652C2.79771 3.63591 2.79771 3.79079 2.68011 3.82018L2.04704 3.97842C2.006 3.98867 1.97396 4.01841 1.96295 4.05649L1.79248 4.6442Z" fill="white"/>
<path d="M3.9743 8.01993C3.94265 8.1291 3.7758 8.1291 3.74415 8.01993L3.57368 7.43222C3.56267 7.39414 3.53058 7.3644 3.48959 7.35415L2.85652 7.19591C2.73892 7.16652 2.73892 7.01164 2.85652 6.98225L3.48959 6.82401C3.53058 6.81375 3.56267 6.78402 3.57368 6.74594L3.74415 6.15822C3.7758 6.04906 3.94265 6.04906 3.9743 6.15822L4.14477 6.74594C4.15579 6.78402 4.18782 6.81375 4.22886 6.82401L4.86193 6.98225C4.97954 7.01164 4.97954 7.16652 4.86193 7.19591L4.22886 7.35415C4.18782 7.3644 4.15579 7.39414 4.14477 7.43222L3.9743 8.01993Z" fill="white"/>
<path d="M2.11776 6.69688C2.09665 6.76966 1.98542 6.76966 1.96432 6.69688L1.85067 6.30507C1.84333 6.27969 1.82194 6.25986 1.79461 6.25303L1.37257 6.14753C1.29416 6.12794 1.29416 6.02469 1.37257 6.00509L1.79461 5.8996C1.82194 5.89276 1.84333 5.87294 1.85067 5.84755L1.96432 5.45574C1.98542 5.38297 2.09665 5.38297 2.11776 5.45574L2.2314 5.84755C2.23874 5.87294 2.2601 5.89276 2.28746 5.8996L2.70951 6.00509C2.78791 6.02469 2.78791 6.12794 2.70951 6.14753L2.28746 6.25303C2.2601 6.25986 2.23874 6.27969 2.2314 6.30507L2.11776 6.69688Z" fill="white"/>
<path d="M7.20864 5.34654C7.18754 5.41932 7.0763 5.41932 7.0552 5.34654L6.94155 4.95473C6.93421 4.92935 6.91282 4.90952 6.88549 4.90268L6.46345 4.79719C6.38505 4.7776 6.38505 4.67434 6.46345 4.65475L6.88549 4.54926C6.91282 4.54242 6.93421 4.5226 6.94155 4.49721L7.0552 4.1054C7.0763 4.03263 7.18754 4.03263 7.20864 4.1054L7.32228 4.49721C7.32963 4.5226 7.35098 4.54242 7.37834 4.54926L7.80039 4.65475C7.87879 4.67434 7.87879 4.7776 7.80039 4.79719L7.37834 4.90268C7.35098 4.90952 7.32963 4.92935 7.32228 4.95473L7.20864 5.34654Z" fill="white"/>
<path d="M14.4047 13.5032L13.6774 14.1783M4.24426 4.5424L16.0489 14.5878C16.342 14.8372 16.3519 15.2631 16.0708 15.524V15.524C15.7908 15.784 15.3361 15.7779 15.067 15.5081C10.9912 11.4232 3.81491 4.20759 4.24426 4.5424Z" stroke="white"/>
</svg>
