<svg width="17" height="17" viewBox="0 0 17 17" fill="none" xmlns="http://www.w3.org/2000/svg">
<path d="M4.95882 3.81619C4.93987 4.0416 4.61187 4.09859 4.50637 3.89481L3.9383 2.79767C3.90156 2.72658 3.8267 2.67907 3.74204 2.67292L2.4348 2.57809C2.19196 2.56049 2.13057 2.25601 2.35011 2.15807L3.53191 1.63074C3.60844 1.59658 3.65972 1.52715 3.66628 1.44854L3.76845 0.23494C3.7874 0.00952938 4.11541 -0.0474646 4.2209 0.156321L4.78897 1.25346C4.82571 1.32455 4.90048 1.37207 4.98523 1.37821L6.29247 1.47303C6.53531 1.49064 6.5967 1.79511 6.37716 1.89306L5.19536 2.42039C5.11873 2.45457 5.06755 2.52397 5.06099 2.60259L4.95882 3.81619Z" fill="white"/>
<path d="M1.20599 4.6442C1.17434 4.75336 1.00749 4.75336 0.975834 4.6442L0.805364 4.05649C0.794352 4.01841 0.76227 3.98867 0.721273 3.97842L0.088205 3.82018C-0.0293986 3.79079 -0.0293986 3.63591 0.088205 3.60652L0.721273 3.44828C0.76227 3.43802 0.794352 3.40828 0.805364 3.37021L0.975834 2.78249C1.00749 2.67333 1.17434 2.67333 1.20599 2.78249L1.37646 3.37021C1.38747 3.40828 1.41951 3.43802 1.46055 3.44828L2.09362 3.60652C2.21122 3.63591 2.21122 3.79079 2.09362 3.82018L1.46055 3.97842C1.41951 3.98867 1.38747 4.01841 1.37646 4.05649L1.20599 4.6442Z" fill="white"/>
<path d="M3.38781 8.01993C3.35616 8.1291 3.18931 8.1291 3.15765 8.01993L2.98718 7.43222C2.97617 7.39414 2.94409 7.3644 2.90309 7.35415L2.27002 7.19591C2.15242 7.16652 2.15242 7.01164 2.27002 6.98225L2.90309 6.82401C2.94409 6.81375 2.97617 6.78402 2.98718 6.74594L3.15765 6.15822C3.18931 6.04906 3.35616 6.04906 3.38781 6.15822L3.55828 6.74594C3.56929 6.78402 3.60132 6.81375 3.64237 6.82401L4.27544 6.98225C4.39304 7.01164 4.39304 7.16652 4.27544 7.19591L3.64237 7.35415C3.60132 7.3644 3.56929 7.39414 3.55828 7.43222L3.38781 8.01993Z" fill="white"/>
<path d="M1.53127 6.69688C1.51016 6.76966 1.39893 6.76966 1.37783 6.69688L1.26418 6.30507C1.25684 6.27969 1.23545 6.25986 1.20812 6.25303L0.786076 6.14753C0.707674 6.12794 0.707674 6.02469 0.786076 6.00509L1.20812 5.8996C1.23545 5.89276 1.25684 5.87294 1.26418 5.84755L1.37783 5.45574C1.39893 5.38297 1.51016 5.38297 1.53127 5.45574L1.64491 5.84755C1.65225 5.87294 1.67361 5.89276 1.70097 5.8996L2.12302 6.00509C2.20142 6.02469 2.20142 6.12794 2.12302 6.14753L1.70097 6.25303C1.67361 6.25986 1.65225 6.27969 1.64491 6.30507L1.53127 6.69688Z" fill="white"/>
<path d="M6.62217 5.34654C6.60107 5.41932 6.48984 5.41932 6.46874 5.34654L6.35509 4.95473C6.34775 4.92935 6.32636 4.90952 6.29903 4.90268L5.87698 4.79719C5.79858 4.7776 5.79858 4.67434 5.87698 4.65475L6.29903 4.54926C6.32636 4.54242 6.34775 4.5226 6.35509 4.49721L6.46874 4.1054C6.48984 4.03263 6.60107 4.03263 6.62217 4.1054L6.73582 4.49721C6.74316 4.5226 6.76452 4.54242 6.79188 4.54926L7.21393 4.65475C7.29233 4.67434 7.29233 4.7776 7.21393 4.79719L6.79188 4.90268C6.76452 4.90952 6.74316 4.92935 6.73582 4.95473L6.62217 5.34654Z" fill="white"/>
<path d="M13.8182 13.5032L13.0909 14.1783M3.65777 4.5424L15.4624 14.5878C15.7555 14.8372 15.7654 15.2631 15.4843 15.524V15.524C15.2043 15.784 14.7496 15.7779 14.4805 15.5081C10.4047 11.4232 3.22842 4.20759 3.65777 4.5424Z" stroke="white"/>
</svg>
