<svg width="17" height="17" viewBox="0 0 17 17" fill="none" xmlns="http://www.w3.org/2000/svg">
<path d="M5.45882 3.81608C5.43987 4.04149 5.11187 4.09848 5.00637 3.8947L4.4383 2.79756C4.40156 2.72647 4.3267 2.67897 4.24204 2.67281L2.9348 2.57799C2.69196 2.56038 2.63057 2.25591 2.85011 2.15796L4.03191 1.63063C4.10844 1.59647 4.15972 1.52705 4.16628 1.44843L4.26845 0.234833C4.2874 0.00942257 4.61541 -0.0475714 4.7209 0.156214L5.28897 1.25335C5.32571 1.32444 5.40048 1.37196 5.48523 1.3781L6.79247 1.47293C7.03531 1.49053 7.0967 1.79501 6.87716 1.89295L5.69536 2.42028C5.61873 2.45446 5.56755 2.52387 5.56099 2.60248L5.45882 3.81608Z" fill="white"/>
<path d="M1.70599 4.64419C1.67434 4.75335 1.50749 4.75335 1.47584 4.64419L1.30537 4.05647C1.29436 4.01839 1.26227 3.98866 1.22128 3.9784L0.588209 3.82016C0.470605 3.79077 0.470605 3.63589 0.588209 3.6065L1.22128 3.44826C1.26227 3.43801 1.29436 3.40827 1.30537 3.37019L1.47584 2.78247C1.50749 2.67331 1.67434 2.67331 1.70599 2.78247L1.87646 3.37019C1.88747 3.40827 1.91951 3.43801 1.96055 3.44826L2.59362 3.6065C2.71122 3.63589 2.71122 3.79077 2.59362 3.82016L1.96055 3.9784C1.91951 3.98866 1.88747 4.01839 1.87646 4.05647L1.70599 4.64419Z" fill="white"/>
<path d="M3.8878 8.01995C3.85615 8.12911 3.6893 8.12911 3.65765 8.01995L3.48718 7.43223C3.47616 7.39416 3.44408 7.36442 3.40309 7.35416L2.77002 7.19592C2.65241 7.16653 2.65241 7.01165 2.77002 6.98226L3.40309 6.82402C3.44408 6.81377 3.47616 6.78403 3.48718 6.74595L3.65765 6.15824C3.6893 6.04908 3.85615 6.04908 3.8878 6.15824L4.05827 6.74595C4.06928 6.78403 4.10132 6.81377 4.14236 6.82402L4.77543 6.98226C4.89303 7.01165 4.89303 7.16653 4.77543 7.19592L4.14236 7.35416C4.10132 7.36442 4.06928 7.39416 4.05827 7.43223L3.8878 8.01995Z" fill="white"/>
<path d="M2.03127 6.69694C2.01017 6.76972 1.89894 6.76972 1.87783 6.69694L1.76419 6.30513C1.75684 6.27975 1.73546 6.25992 1.70813 6.25309L1.28608 6.14759C1.20768 6.128 1.20768 6.02475 1.28608 6.00515L1.70813 5.89966C1.73546 5.89282 1.75684 5.873 1.76419 5.84761L1.87783 5.4558C1.89894 5.38303 2.01017 5.38303 2.03127 5.4558L2.14492 5.84761C2.15226 5.873 2.17361 5.89282 2.20098 5.89966L2.62302 6.00515C2.70142 6.02475 2.70142 6.128 2.62302 6.14759L2.20098 6.25309C2.17361 6.25992 2.15226 6.27975 2.14492 6.30513L2.03127 6.69694Z" fill="white"/>
<path d="M7.12218 5.34663C7.10108 5.41941 6.98985 5.41941 6.96874 5.34663L6.8551 4.95482C6.84776 4.92944 6.82637 4.90961 6.79904 4.90278L6.37699 4.79728C6.29859 4.77769 6.29859 4.67444 6.37699 4.65484L6.79904 4.54935C6.82637 4.54251 6.84776 4.52269 6.8551 4.4973L6.96874 4.10549C6.98985 4.03272 7.10108 4.03272 7.12218 4.10549L7.23583 4.4973C7.24317 4.52269 7.26453 4.54251 7.29189 4.54935L7.71393 4.65484C7.79234 4.67444 7.79234 4.77769 7.71393 4.79728L7.29189 4.90278C7.26453 4.90961 7.24317 4.92944 7.23583 4.95482L7.12218 5.34663Z" fill="white"/>
<path d="M14.3182 13.503L13.5909 14.1782M4.15777 4.5423L15.9624 14.5877C16.2555 14.8371 16.2654 15.263 15.9843 15.5239V15.5239C15.7043 15.7839 15.2496 15.7778 14.9805 15.508C10.9047 11.4231 3.72842 4.20749 4.15777 4.5423Z" stroke="white"/>
</svg>
